<svg xmlns="http://www.w3.org/2000/svg" width="63" height="63" viewBox="-31 761 63 63" enable-background="new -31 761 63 63"><path fill="#fff" d="M-17.77 824c-7.172 0-13.23-6.059-13.23-13.23v-36.54c0-7.172 6.059-13.23 13.23-13.23h36.246c7.458 0 13.524 6.066 13.524 13.523v36.246c0 7.172-6.059 13.23-13.231 13.23h-36.539z"/><path d="M-24.336 765.867c-2.379 2.071-4.164 5.031-4.164 8.286v6.51h3.867v-14.796h.297zM-16.603 780.663v-17.163h-1.19c-.892 0-1.785 0-2.677.296v16.867h3.867zM.649 775.928c4.462 0 8.626 1.776 11.6 4.735h17.251v-6.51c0-5.622-4.759-10.357-10.41-10.357h-32.123v16.867h1.785c3.271-2.959 7.435-4.735 11.897-4.735zm13.384-6.214c0-1.184.892-2.367 2.379-2.367h6.841c1.19 0 2.379.888 2.379 2.367v6.806c0 1.184-.892 2.367-2.379 2.367h-6.841c-1.19 0-2.379-.888-2.379-2.367v-6.806zM17.305 792.5c0 9.173-7.436 16.571-16.656 16.571s-16.656-7.398-16.656-16.571c0-2.663.595-5.327 2.082-7.694h-14.575v26.337c0 5.622 4.759 10.357 10.41 10.357h37.18c5.651 0 10.41-4.735 10.41-10.357v-26.337h-13.979c1.189 2.367 1.784 5.03 1.784 7.694zM-12.438 792.5c0 7.102 5.949 13.02 13.087 13.02s13.087-5.918 13.087-13.02-5.949-13.02-13.087-13.02-13.087 5.918-13.087 13.02zm21.415 0c0 4.735-3.867 8.286-8.328 8.286s-8.328-3.551-8.328-8.286 3.569-8.286 8.328-8.286 8.328 3.551 8.328 8.286z"/></svg>