<svg baseProfile="tiny" xmlns="http://www.w3.org/2000/svg" width="63" height="63" viewBox="-31 761 63 63" overflow="auto"><path fill="#fff" d="M-17.77 824c-7.172 0-13.23-6.059-13.23-13.23v-36.54c0-7.172 6.059-13.23 13.23-13.23h36.246c7.458 0 13.524 6.066 13.524 13.523v36.246c0 7.172-6.059 13.23-13.231 13.23h-36.539z"/><path d="M19.09 763.5h-37.18c-5.651 0-10.41 4.759-10.41 10.41v37.179c0 5.651 4.759 10.41 10.41 10.41h37.18c5.651 0 10.41-4.759 10.41-10.41v-37.179c0-5.651-4.759-10.41-10.41-10.41zm-3.569 21.713c.297 12.195-6.841 19.928-15.764 22.903-5.949 2.082-15.764.892-19.036-2.677 4.759.297 9.518-.595 11.6-3.272-3.569-.297-6.544-2.379-7.138-5.651h.297c.892.297 2.379.297 2.974-.297-3.569-.595-5.354-2.974-5.949-6.841v-.892l3.272.892v-.297c-.892-1.19-2.082-2.082-2.677-3.569-.892-2.379-.297-6.246.892-6.841 2.677 4.164 10.113 7.733 16.359 8.328 0 0 0-.297.297-.297-1.19-5.651 3.272-9.221 6.544-9.518 3.569 0 5.056.892 7.138 2.379l5.056-1.785c-.892 2.082-1.785 2.974-3.272 4.164 1.487-.297 2.974-.892 4.164-1.19-1.783 1.784-2.973 3.271-4.757 4.461z"/></svg>