<svg xmlns="http://www.w3.org/2000/svg" width="63" height="63" viewBox="-31 761 63 63" enable-background="new -31 761 63 63"><path fill="#fff" d="M-17.77 824c-7.172 0-13.23-6.059-13.23-13.23v-36.54c0-7.172 6.059-13.23 13.23-13.23h36.246c7.458 0 13.524 6.066 13.524 13.523v36.246c0 7.172-6.059 13.23-13.231 13.23h-36.539z"/><path d="M18.792 763.5h-36.882c-5.651 0-10.41 4.735-10.41 10.357v36.99c0 5.622 4.759 10.357 10.41 10.357h19.928v-24.857h-5.056v-8.286h5.056v-7.102c0-5.031 4.164-9.173 9.221-9.173h8.923v8.582h-5.354c-1.19 0-2.379 1.184-2.379 2.367v5.327h7.733l-.892 8.582h-6.841v24.856h6.841c5.651 0 10.41-4.735 10.41-10.357v-36.99c0-5.919-4.759-10.653-10.708-10.653z"/></svg>