<svg baseProfile="tiny" xmlns="http://www.w3.org/2000/svg" width="63" height="63" viewBox="-31 761 63 63"><path fill="#fff" d="M-17.77 824c-7.172 0-13.23-6.059-13.23-13.23v-36.54c0-7.172 6.059-13.23 13.23-13.23h36.246c7.458 0 13.524 6.066 13.524 13.523v36.246c0 7.172-6.059 13.23-13.231 13.23h-36.539z"/><path d="M18.792 763.5h-36.882c-5.651 0-10.41 4.759-10.41 10.41v37.179c0 5.651 4.759 10.41 10.41 10.41h37.18c5.651 0 10.41-4.759 10.41-10.41v-36.882c0-5.948-4.759-10.707-10.708-10.707zm-13.682 46.4c-8.031 0-11.005-5.651-11.005-9.815v-11.897h-3.569v-4.462c5.354-2.082 6.841-6.841 7.138-9.815 0-.297.297-.297.297-.297h5.354v9.221h7.138v5.354h-7.137v11.303c0 1.487.595 3.569 3.569 3.569.892 0 2.379-.297 2.974-.595l1.785 5.056c-.892 1.188-3.867 2.378-6.544 2.378z"/></svg>